<svg viewBox="0 0 2124 1451" fill="none" xmlns="http://www.w3.org/2000/svg">
  <!-- <svg view-box="x1062Y725 meet" fill="none" xmlns="http://www.w3.org/2000/svg"> -->
  <path fill-rule="evenodd" clip-rule="evenodd"
    d="M1071.25 605.004C1035.47 420.392 890.605 200.077 1021.01 64.6482C1149.36 -68.6442 1381.12 36.7843 1553.3 104.377C1676.69 152.815 1728.47 282.811 1820.32 378.428C1925.01 487.402 2099.87 545.024 2120.47 694.778C2143.36 861.213 2050.76 1027.22 1924.83 1138.36C1796.31 1251.79 1616.29 1334.3 1452.33 1284.44C1300.91 1238.39 1262.99 1051.63 1185.53 913.526C1129.76 814.1 1092.94 716.938 1071.25 605.004"
    fill="#22C55E" />
  <path fill-rule="evenodd" clip-rule="evenodd"
    d="M503.745 195.964C688.147 169.957 904.798 42.2827 1040.53 169.697C1176.11 296.969 1037.47 520.447 1047.15 706.076C1057.94 912.897 1224.33 1136.07 1099.55 1301.44C972.555 1469.75 710.295 1469.07 503.745 1426.25C330.206 1390.27 214.152 1242.04 112.694 1096.83C31.9957 981.334 2.85988 846.92 0.563963 706.076C-1.7838 562.051 -1.4496 404.965 99.7431 302.379C201.375 199.347 360.388 216.182 503.745 195.964Z"
    fill="#06B6D4" />
</svg>